<?xml version="1.0" encoding="UTF-8"?>
<!DOCTYPE svg PUBLIC "-//W3C//DTD SVG 1.1//EN" "http://www.w3.org/Graphics/SVG/1.1/DTD/svg11.dtd">
<!-- Creator: CorelDRAW -->
<svg xmlns="http://www.w3.org/2000/svg" xml:space="preserve" width="69.0534mm" height="73.1008mm" version="1.1" style="shape-rendering:geometricPrecision; text-rendering:geometricPrecision; image-rendering:optimizeQuality; fill-rule:evenodd; clip-rule:evenodd"
viewBox="0 0 6891.13 7295.04"
 xmlns:xlink="http://www.w3.org/1999/xlink"
 xmlns:xodm="http://www.corel.com/coreldraw/odm/2003">
 <defs>
  <style type="text/css">
   <![CDATA[
    .fil0 {fill:white}
    .fil2 {fill:url(#id0)}
    .fil1 {fill:url(#id1)}
    .fil3 {fill:url(#id2);fill-rule:nonzero}
    .fil5 {fill:url(#id3);fill-rule:nonzero}
    .fil4 {fill:url(#id4);fill-rule:nonzero}
   ]]>
  </style>
  <linearGradient id="id0" gradientUnits="userSpaceOnUse" x1="1070.65" y1="4731.97" x2="5820.37" y2="4731.97">
   <stop offset="0" style="stop-opacity:1; stop-color:#783400"/>
   <stop offset="0.25098" style="stop-opacity:1; stop-color:#B87927"/>
   <stop offset="0.490196" style="stop-opacity:1; stop-color:#B87927"/>
   <stop offset="0.721569" style="stop-opacity:1; stop-color:#B87927"/>
   <stop offset="1" style="stop-opacity:1; stop-color:#783400"/>
  </linearGradient>
  <linearGradient id="id1" gradientUnits="userSpaceOnUse" x1="3331.01" y1="6224.87" x2="3331.01" y2="4548.63">
   <stop offset="0" style="stop-opacity:1; stop-color:#000066"/>
   <stop offset="0.113725" style="stop-opacity:1; stop-color:#000B66"/>
   <stop offset="0.219608" style="stop-opacity:1; stop-color:#001666"/>
   <stop offset="1" style="stop-opacity:1; stop-color:white"/>
  </linearGradient>
  <linearGradient id="id2" gradientUnits="userSpaceOnUse" x1="3445.56" y1="3388.77" x2="3445.56" y2="5005.55">
   <stop offset="0" style="stop-opacity:1; stop-color:#B70000"/>
   <stop offset="1" style="stop-opacity:1; stop-color:red"/>
  </linearGradient>
  <linearGradient id="id3" gradientUnits="userSpaceOnUse" x1="3470.86" y1="-2282.87" x2="3470.86" y2="5614.08">
   <stop offset="0" style="stop-opacity:1; stop-color:red"/>
   <stop offset="0.270588" style="stop-opacity:1; stop-color:red"/>
   <stop offset="1" style="stop-opacity:1; stop-color:#870000"/>
  </linearGradient>
  <linearGradient id="id4" gradientUnits="userSpaceOnUse" x1="3470.86" y1="7107.01" x2="3470.86" y2="1469.23">
   <stop offset="0" style="stop-opacity:1; stop-color:#000066"/>
   <stop offset="1" style="stop-opacity:1; stop-color:#3B73FF"/>
  </linearGradient>
 </defs>
 <g id="Camada_x0020_1">
  <metadata id="CorelCorpID_0Corel-Layer"/>
  <g id="_2450278439936">
   <path class="fil0" d="M4838.53 1333.11l125.88 78.53c151.35,94.43 293.79,202.92 425.09,323.65l339.41 -100.97 -102.93 345.76c387,451.23 624.18,1008.3 679.14,1600.4l586 317.17 -597.5 323.3c-75.89,588.31 -332.41,1136.2 -733.89,1572.49l100.96 339.39 -345.76 -102.93c-451.22,386.99 -1008.29,624.18 -1600.39,679.13l-317.18 586.01 -323.3 -597.51c-588.31,-75.89 -1136.2,-332.41 -1572.5,-733.89l-339.38 100.97 102.92 -345.76c-386.98,-451.23 -624.17,-1008.3 -679.13,-1600.39l-585.99 -317.18 597.49 -323.3c75.9,-588.3 332.42,-1136.2 733.89,-1572.5l-100.96 -339.38 345.73 102.92c110.15,-94.54 227.38,-180.67 350.65,-257.43l125.8 -78.35c31.96,-741.64 643.47,-1333.25 1392.98,-1333.25 749.45,0 1360.93,591.53 1392.97,1333.11z"/>
   <g>
    <path class="fil1" d="M3142.75 4548.63l-7.23 0.18c6.29,10.96 152.55,75.32 182.49,108.98l-229.25 65.2c-19.12,8.09 -10.28,3.39 -21,11.95 32.78,32.22 86.27,73.09 100.44,93.77 -21.06,28.28 -341.95,206.45 -388.69,256.2l95.62 289.09c-84.29,33.28 -195.02,94.03 -274.55,137.37 -152.06,82.87 -447,197.55 -533.35,272.87 388.69,277.41 864.45,440.66 1378.32,440.66 416.89,0 808.63,-107.56 1149.22,-296.23 -23.8,-23 -42.51,-40.9 -50.83,-48.85 -47.7,-45.58 -88.2,-86.54 -134.99,-131.46 -36.38,-34.92 -109.76,-102.8 -129.58,-135.41l144.75 -193.4c-19.4,-36.15 -104.4,-115.3 -140.05,-153.35 -30.26,-32.3 -306,-178.76 -370.33,-215.4 -97.24,-55.39 -83.41,-48.89 -78.77,-189.18 -72.97,-43.98 -158.47,-73.52 -236.11,-105.56 -22.97,-9.47 -56.48,-20.53 -73.45,-38.16 57.61,-48.08 270.36,-121.58 299.23,-169.07l-681.91 -0.18z"/>
    <path class="fil2" d="M2538.77 5292.39c58.65,-16.65 149.48,-48.6 169.73,-63.14l-55.47 -189.82c-14.88,-24.65 -22.63,-64.03 -37.27,-91.23 -17.92,-33.33 -27.48,-24.24 -89.41,-47.95 -68.17,-26.11 -121.85,-54.53 -185.5,-82.9 -63.67,-28.38 -46.1,-16.45 -85.15,-179.55 -15.92,-66.47 -38.87,-154.82 -47.06,-222.2l137.59 277.18c20.34,51.23 17.22,61.39 77.59,71.34 287.7,47.37 212.78,18.97 334.89,188.14l19.28 22.5 6.92 20.4 30.21 -3.38c27.07,-17.57 33.76,-24.93 50.73,-53.94 21.12,-36.09 14.98,-33.81 63.13,-49.15 51.58,-16.43 118.35,-32.22 154.71,-60.27 -28.02,-42.24 -102.85,-92.81 -163.19,-118.93l-22.92 -9.4c-37.39,-48.45 -82.84,-18.06 -143.13,-118.68 -17.29,-28.88 -33.53,-52.58 -50.11,-77.97 -21.52,-32.88 -43.46,-38.48 -77.95,-60.05 -74.46,-46.56 -73.24,-76.71 -118.1,-147.29 -36.54,-57.51 -79.54,-119.8 -106.03,-162.99l-21.67 -13.1 -3.29 -0.98 -537.53 501.08c44.37,22.47 84.52,45.88 95.93,62.19 12.85,18.39 25.66,49.04 35.17,69.78 10.76,23.46 21.1,47.22 32.08,70.55 19.43,41.26 37.21,83.85 57.14,124.7 4.92,10.09 12.11,25.57 21.71,32.26 13.88,9.69 43.61,19.39 59.66,25.66 54.24,21.18 106.72,44.69 158.92,70.54 22.61,11.18 46.49,21.17 69.49,31.69 21.05,9.65 55.06,24.19 72.73,38.43 21.25,17.13 37.6,49.17 50.59,73.09 6.1,11.23 21.83,41.67 31.02,49.58 7.54,6.5 12.5,14.76 14.59,23.79zm-461.09 -1276.13l-240.41 -66.51c-61.91,-18.61 -107.93,-36.22 -151.82,-51.13l21.54 550.33 118.22 -190.62 4.1 -3.94 248.38 -238.12zm-661.41 -162.33c-103.8,-3.9 -94.17,-20.96 -149.22,-84.08 -47.85,-54.89 -79.9,-104.33 -123.18,-139.8l-63.23 0c-6.32,68.52 -9.65,137.65 -10,207.21l228.85 291.3c0.49,0.62 0.9,1.16 1.35,1.81 49.36,69.75 79.36,132.93 99.02,211.72l16.42 -488.16zm3603.57 1773.54c26.79,-62.21 54.91,-123.79 77.26,-181.79 20.07,-52.05 16.23,-33.35 73.7,-52.07 28.76,-9.37 67.29,-21.82 107.91,-34.1 44.47,-53.93 86.53,-109.92 126.16,-167.7 -55.96,23.63 -136.18,55.96 -154.91,64.5l-802.04 362.22c-24.89,4.26 -9.61,18.74 -22.61,-4.8l-19.62 20.94c30.42,22.48 191.08,113.66 344.84,199.21 94.71,-62.43 184.72,-131.44 269.31,-206.4zm619.6 -867.14c-39.47,27.54 -61.83,119.72 -91.56,194.12l-0.83 2.11c33.64,-63.76 64.53,-129.19 92.39,-196.23zm-419.92 667.98c-4.68,2.18 -9.23,4.43 -13.57,6.78 -6.6,3.56 -26.53,28.84 -52.39,64.37 22.47,-23.25 44.44,-47 65.96,-71.14zm-2248.17 -744.3c71.52,-19.9 186.91,-22.27 226.94,-51.75 -9.06,-27.98 -3.68,-17.91 -27.25,-34.87 -9.74,-7.01 -23.62,-14.38 -37.94,-22.45 -27,-15.23 -55.12,-29.59 -86.74,-39.23 -61.27,-7.97 -59.11,-10.14 -84.24,-55.66 -15.99,-28.99 -3.5,-17.25 -33.64,-35.77 -83.29,-51.22 -87.93,-38.57 -146.95,-171.77 -46.92,-105.89 -23.09,-82.08 -150.41,-107.17 -49.35,-9.71 -114.18,-20.23 -172.49,-26.92 27.53,42.74 60.39,90.65 87.64,133.52 38.54,60.66 40.43,93.53 103.98,133.28 39.19,24.51 64.43,31.79 91.75,73.58 17.26,26.4 34.83,52.39 51.04,79.47 15.79,26.34 32.44,48.07 60.63,61.26 29.7,13.9 49.74,19.55 71.21,43.09l13.09 5.38c10.5,4.54 21.76,9.93 33.37,16.01zm1763.71 693.61c-36.3,39.93 -102.25,83.28 -151.05,119.02 -12.81,9.39 -25.31,18.73 -37.6,27.99l685.02 -309.36c34.94,-15.79 71.79,-29.94 107.3,-44.62 26.08,-10.8 62.86,-24.09 89.34,-37.6 4.28,-8.8 8.34,-19.33 11.7,-27.32 8.93,-21.32 17.49,-42.79 25.97,-64.28 13.6,-34.5 26.62,-69.3 40.36,-103.71 26.38,-66.01 56.29,-198.49 128.26,-225.24 8.62,-3.2 18.22,-6.85 28.52,-10.76 18.49,-48.08 35.61,-96.84 51.01,-146.37 -73.05,27.94 -142.2,53.55 -168.7,63.94 -66.74,26.14 -63.21,28.6 -110.98,154.03 -21.1,55.39 -35.03,103.07 -58.57,135.31l-5.23 13.54 -13.05 6.43c-4.73,4.02 -9.81,7.58 -15.33,10.66 -44.3,24.62 -135.7,65.9 -223.35,106.85l-64.43 31.73 0 -1.26c-73.24,35.23 -133.49,66.83 -145.24,82.95 -24.23,33.28 -26.33,41.8 -54.04,74.79 -38.02,45.25 -61.68,107.66 -119.89,143.26zm-601.6 -551.73c9.91,-44.66 63.06,-144.58 85.52,-192.03 130.36,-275.22 57.22,-217.69 265.96,-292.91 52.14,-18.77 128.64,-47.48 188.41,-61.55l-223.21 -208.07c-35.3,20.78 -65.64,43.23 -116.06,49.45 -51.15,49.48 -176.26,71.85 -232.87,132.42 -44.73,47.83 -98.92,185.05 -145.61,222.59 -12.47,32.01 -21.71,35.78 -49.4,54.4 -12.57,8.46 -17.25,10.46 -31.32,20.93 -16.93,12.62 -15.54,7.62 -20.94,21.19 -40.19,15.65 -170.94,100.32 -197.86,128.19 57.01,45.32 222.31,75.69 299.6,119.4 -8.09,33.46 -41.83,61.99 -60.4,103.62l118.09 12.18 -4.57 65.31c43.27,7.08 106.27,25.77 155.58,30.56 7.43,-9.87 13.66,-18.37 14.39,-21.53 3.8,-16.46 15.43,-28.63 31.69,-33.2 23.91,-6.7 55.73,-22.72 78.34,-33.6 26.11,-12.55 54.97,-26.39 79.63,-41.5 26.18,-16.05 52.84,-30.25 80,-44.53 27.87,-14.66 23.02,-22.05 38.46,-51.69 17.88,-34.38 34.21,-69.13 50.03,-104.47 11.75,-26.28 23.25,-53.09 37.06,-78.36 32.3,-59.18 72.54,-94.93 128.52,-131.55 29.27,-19.13 23.38,-15.43 39.5,-47.51 11.44,-22.76 22.71,-45.65 33.9,-68.59l-92.49 -86.22c-84.87,82.81 -217.13,92.09 -375.73,304.46 -21.98,29.43 -37.55,51.5 -57.11,79.91l-117.13 152.74zm768.88 -712.41c19.89,-40.49 39.97,-80.89 60.56,-121 12.36,-24.07 35.67,-73.09 53.55,-94 -179.03,23.52 -216.26,58.44 -250.3,84.42l136.2 130.58zm683.06 209.91c59.35,-100.97 128.83,-137.78 145.1,-284.17 24.62,-221.7 11.04,-121.89 89.85,-216.65 -0.5,-43.98 -2.21,-87.77 -5.09,-131.34 -20.46,12.37 -41.6,24.72 -65.85,36.59 -82.87,40.57 -117.24,39.45 -218.96,58.14 -20.84,3.83 -44.57,7.72 -70.03,11.82l26.75 795.25c78.42,-29.95 156.37,-60.6 234.1,-92.57l10.06 -4.14c38.97,-138.03 65.69,-281.19 79.11,-428.19 -3.57,17.49 -6.83,35.03 -9.65,52.56 -7.72,47.99 -4.3,43.9 -39.92,70.07l-175.48 132.64zm-497.62 -432.91c-1.54,1.79 -3.79,3.92 -4.9,5.05l-31.73 31.65c-12.64,14.03 -61.53,110.66 -114.69,219l112.86 108.19 4.1 3.94 118.21 190.62 23.51 -600.54c-43.86,11.88 -81.71,25.67 -107.35,42.09zm-277.69 516.38c-12.23,25.26 -21.92,45.15 -27.85,56.95 -20.12,40.06 -17.9,40.65 -55.09,64.98 -124.67,81.52 -111.63,127.16 -200.33,297.49 -22.76,43.72 -17.42,49.73 -57.44,70.76 -29.9,15.72 -50.39,26.49 -77.42,43.06 -31.61,19.37 -134.99,70.45 -169.33,80.07 21.51,19.17 -25.44,16.92 32.78,10.61 0.05,-0.01 23.19,-9.22 25.38,-10.18 22.82,-9.94 27.17,-11.66 52.27,-18.78 87.46,-24.79 259.83,-50.9 318.53,-112.56l281.86 -278.85c-4.98,74.88 -18.84,157.23 -27.65,233.96 -3.78,32.92 -6.33,82.18 -14.08,111.5 -9.35,35.4 -9.8,25.95 -66.76,60.94 -60.87,37.41 -282.52,196.75 -315.65,209.86 -11.26,20.79 -46.74,54.88 -66.06,67.42l242.49 69.42c5.69,-5.34 11.06,-10.73 16,-16.16 3.01,-3.32 6.01,-5.79 9.83,-8.13 47.02,-28.76 73.64,-91.82 108.93,-133.81 19.86,-23.64 34.09,-47.59 52.12,-72.32 20.86,-28.63 117.99,-76.58 181.62,-106.54l0 -392.1 -244.14 -227.58zm-3220.44 924.38c-37.64,-102.41 -55.88,-179.34 -94.98,-285.24 -17.9,-48.5 -70.54,-81.39 -109.29,-114.83 -35.75,-30.85 -62.8,-56.36 -94.81,-82.52 80.46,173.18 181.15,335.07 299.09,482.59zm-370.41 -653.19c85.79,39.85 173.59,83.58 250.05,143.37l-78.72 -203.85 5.05 -150.11c-47.67,-45.86 -8.99,-137.92 -131.54,-311.09l-192.76 -245.34c6.86,269.2 58.59,527.26 147.91,767.02zm709.02 998.44c21.08,-38.64 8.9,-73.69 92.27,-88.07 189.94,-32.74 164.52,-23.41 309.6,-112.28 87.48,-53.6 134.25,-60.81 164.66,-173.45 -27.58,-23.76 -55.45,-101.54 -80.47,-121.72 -16.99,-13.69 -106.98,-51.48 -133.93,-64.84 -288.45,-142.8 -203.79,-31.41 -318.18,-274.33 -12.68,-26.92 -52.23,-117.72 -63.42,-133.68 -5.78,-8.27 -34.07,-24.55 -74.42,-44.82l0 414.59 -49.12 -24.19c-0.37,6.17 -0.5,11.73 -0.13,15.76 7.91,86.15 -19.73,279.3 -43.27,424.16 61.95,64.57 127.55,125.62 196.41,182.88z"/>
    <path class="fil3" d="M3439.31 3537.04l256.27 65.21 507.2 176.98 896.46 835.65 0 390.68 235.49 -115.95 107.99 -279.66 -34.48 -1024.89 397.61 0c-7.36,-66.08 -17.45,-131.55 -30.21,-196.28l-4660.17 0c-12.75,64.73 -22.83,130.2 -30.21,196.28l385.11 0 -34.49 1024.89 107.99 279.66 235.49 115.95 0 -390.68 896.46 -835.65 507.2 -176.98 256.27 -65.21zm-1235.56 48.01l317.43 0 0 68.7c-220.41,210.86 -440.51,422.05 -660.72,633.13l-192.69 310.73 -39.64 -1012.56 575.62 0zm2471.12 0l575.63 0 -39.65 1012.56 -192.69 -310.73c-220.21,-211.08 -440.31,-422.28 -660.71,-633.13l0 -68.7 317.42 0z"/>
    <path class="fil4" d="M6672.33 3897.63l-466.33 -252.4c-45.67,-628.02 -301.19,-1197.56 -696.21,-1639.81l64.43 -216.43 -212.36 63.18c-137.93,-132.3 -289.62,-250.51 -452.57,-352.17 -8.13,115.41 -29.71,226.75 -62.86,333.09 637.09,443.51 1054.33,1181.3 1054.33,2016.38 0,1355.81 -1099.36,2455.17 -2455.19,2455.17 -1355.82,0 -2455.19,-1099.35 -2455.19,-2455.17 0,-835.08 417.22,-1572.88 1054.33,-2016.38 -33.16,-106.34 -54.74,-217.68 -62.87,-333.09 -135.11,84.14 -262.09,179.53 -380.32,285.24l-216.43 -64.43 63.18 212.36c-410.96,428.17 -685.58,988.33 -753.77,1610.73l-475.7 257.4 466.32 252.4c45.68,628.02 301.2,1197.56 696.21,1639.81l-64.43 216.43 212.36 -63.18c428.18,410.97 988.32,685.58 1610.73,753.76l257.4 475.71 252.41 -466.33c628.01,-45.66 1197.56,-301.19 1639.8,-696.2l216.43 64.43 -63.18 -212.37c410.97,-428.17 685.58,-988.31 753.77,-1610.72l475.71 -257.4z"/>
    <path class="fil5" d="M3445.56 104.15c-712.48,0 -1290.15,577.67 -1290.15,1290.14 0,352.48 141.38,671.51 370.32,904.51l886.68 914.19c18.13,18.77 48.16,18.77 66.3,0 316.21,-326.03 991.24,-924.36 1157.84,-1321.72 63.81,-152.94 99.15,-320.59 99.15,-496.99 0,-712.47 -577.67,-1290.14 -1290.14,-1290.14zm0 2077.99c-435.05,0 -787.86,-352.8 -787.86,-787.86 0,-435.04 352.8,-787.86 787.86,-787.86 435.04,0 787.85,352.81 787.85,787.86 0,435.05 -352.8,787.86 -787.85,787.86z"/>
   </g>
  </g>
 </g>
</svg>
